<svg id="Layer_1" data-name="Layer 1" xmlns="http://www.w3.org/2000/svg" viewBox="0 0 1915.38 369.12"><defs><style>.cls-1{fill:#61656a;}.cls-2{fill:#5f6468;}</style></defs><title>Sarnalagret</title><rect class="cls-1" x="114.71" y="84.97" width="27.6" height="201.88" rx="5.77" transform="translate(-57.4 314.42) rotate(-90)"/><rect class="cls-1" x="114.2" y="84.97" width="27.6" height="201.88" rx="5.77" transform="translate(256 371.82) rotate(180)"/><rect class="cls-1" x="92.88" y="93.72" width="27.6" height="67.75" rx="5.77" transform="translate(270.51 99) rotate(120)"/><rect class="cls-1" x="135.52" y="93.72" width="27.6" height="67.75" rx="5.77" transform="translate(185.16 -65.52) rotate(60)"/><path class="cls-2" d="M326.17,262.44q-10.77-5.16-16.68-10.62l11.07-11.51,10.62-11.95a31.53,31.53,0,0,0,8.56,5.46q13.58,6.48,30.7,6.49,27.44,0,29.66-15.06v-.74a12.7,12.7,0,0,0-3.1-8.11q-7.23-8.11-26.56-8.11-33.94,0-50-18.75a39.57,39.57,0,0,1-11.07-27.74,40.64,40.64,0,0,1,.44-5.91q2.5-18.73,18.74-30.69,16.53-11.51,41.91-11.51,24.36,0,44.28,9.3,10.77,5.16,16.67,10.77l-21.69,23q0-.89-8.56-5.17-13.58-6.35-30.69-6.34-27.45,0-29.22,14.46v2.07a9.85,9.85,0,0,0,2.65,6.79q7.23,8.11,26.57,8.11,33.78,0,50.47,18.75,10.62,12.39,10.62,27.74a42.31,42.31,0,0,1-.44,6.35q-2.07,18.74-18.74,30.25-16.53,12-41.91,11.95Q346.1,271.74,326.17,262.44Z"/><path class="cls-2" d="M589.88,271.74h-37L544,249.61H477.87l-9,22.13h-37l79.24-158ZM494.69,76.21a13,13,0,0,1,8.86,3.4,12.64,12.64,0,0,1,3.54,8.85,11.89,11.89,0,0,1-12.4,12.4,13.13,13.13,0,0,1-9-3.4,13.13,13.13,0,0,1-3.39-9,13,13,0,0,1,3.39-8.85A13.13,13.13,0,0,1,494.69,76.21Zm35.57,141.08-19.19-38.37-19.18,38.37ZM527,76.21a11.61,11.61,0,0,1,8.56,3.4,12.13,12.13,0,0,1,3.84,8.85,12.35,12.35,0,0,1-3.84,9,11.57,11.57,0,0,1-8.56,3.4,11.89,11.89,0,0,1-12.39-12.4,12.65,12.65,0,0,1,3.54-8.85A12.94,12.94,0,0,1,527,76.21Z"/><path class="cls-2" d="M729.33,176.7q0,35.42-26,52.1L719,271.74H685.36l-12-32.32q-4.57.45-7.22.45H634.3v31.87H602.72V113.25h63.46q15.78,0,31.58,8.12Q729.32,137.17,729.33,176.7Zm-63.16,31.59A36.82,36.82,0,0,0,682,204.45q15.79-8.12,15.79-27.75,0-19.92-15.79-27.59a33.81,33.81,0,0,0-15.79-4.28H634.3v63.46Z"/><path class="cls-2" d="M745.56,271.74v-158l91.65,85.15V113.69h32V271.74l-92.09-85.59v85.59Z"/><path class="cls-2" d="M1043.51,271.74h-37l-8.86-22.13H931.5l-9,22.13h-37l79.25-158Zm-59.62-54.45L964.7,178.92l-19.18,38.37Z"/><path class="cls-2" d="M1091.32,113.69V240.31h72.89v31.43H1059.74v-158Z"/><path class="cls-2" d="M1334.37,271.74h-37l-8.86-22.13h-66.11l-9,22.13h-37l79.25-158ZM1239.18,76.21a13,13,0,0,1,8.86,3.4,12.64,12.64,0,0,1,3.54,8.85,11.89,11.89,0,0,1-12.4,12.4,13.13,13.13,0,0,1-9-3.4,13.13,13.13,0,0,1-3.39-9,12.91,12.91,0,0,1,3.39-8.85A13.13,13.13,0,0,1,1239.18,76.21Zm35.57,141.08-19.18-38.37-19.19,38.37ZM1271.5,76.21a11.6,11.6,0,0,1,8.56,3.4,12.13,12.13,0,0,1,3.84,8.85,12.31,12.31,0,0,1-3.84,9,11.58,11.58,0,0,1-8.56,3.4,11.9,11.9,0,0,1-12.4-12.4,12.66,12.66,0,0,1,3.55-8.85A12.92,12.92,0,0,1,1271.5,76.21Z"/><path class="cls-2" d="M1481.79,192.49q0,49.44-39.11,69.51-20.07,9.74-39.69,9.74-49.44,0-69.51-39.55a88.5,88.5,0,0,1-9.74-39.7q0-19.62,9.74-39.54,20.07-39.25,69.51-39.26,53.27,0,71.57,45.16l-27.15,16.68q-10.79-30.25-44.42-30.26-29.82,0-41.77,23.76a51,51,0,0,0-5.9,23.46,53.52,53.52,0,0,0,5.9,23.91q12,23.91,41.77,23.91,22.58,0,36.74-15.79H1403v-32h78.8Z"/><path class="cls-2" d="M1624.64,176.7q0,35.42-26,52.1l15.64,42.94h-33.65l-12-32.32q-4.57.45-7.23.45H1529.6v31.87H1498V113.25h63.46q15.8,0,31.58,8.12Q1624.63,137.17,1624.64,176.7Zm-63.16,31.59a36.82,36.82,0,0,0,15.79-3.84q15.78-8.13,15.79-27.75,0-19.92-15.79-27.59a33.84,33.84,0,0,0-15.79-4.28H1529.6v63.46Z"/><path class="cls-2" d="M1751.69,113.69v31.58h-79.24v31.44h66.41v31.58h-66.41v32h79.24v31.44H1640.87V113.69Z"/><path class="cls-2" d="M1894.25,113.69v31.44H1847V271.74h-31.88V145.12h-47.22V113.69Z"/><rect class="cls-1" x="174.7" y="130.72" width="27.6" height="67.75" rx="5.77" transform="translate(269.73 401.29) rotate(-150.07)"/><rect class="cls-1" x="174.75" y="173.37" width="27.6" height="67.75" rx="5.77" transform="translate(455.56 292.12) rotate(149.93)"/><rect class="cls-1" x="54.73" y="173.36" width="27.6" height="67.75" rx="5.77" transform="translate(112.8 -6.5) rotate(30)"/><rect class="cls-1" x="54.73" y="130.71" width="27.6" height="67.75" rx="5.77" transform="translate(-73.11 56.31) rotate(-30)"/><rect class="cls-1" x="136.03" y="211.81" width="27.6" height="67.75" rx="5.77" transform="translate(-137.85 252.6) rotate(-60)"/><rect class="cls-1" x="93.39" y="211.81" width="27.6" height="67.75" rx="5.77" transform="translate(-51.98 461.35) rotate(-120)"/></svg>