<svg id="Layer_1" data-name="Layer 1" xmlns="http://www.w3.org/2000/svg" viewBox="0 0 1915.38 369.12"><defs><style>.cls-1{fill:#61656a;}</style></defs><title>Branaslagret</title><rect class="cls-1" x="93.28" y="96.6" width="26.72" height="195.48" rx="5.77" transform="translate(-87.69 300.98) rotate(-90)"/><rect class="cls-1" x="92.79" y="96.6" width="26.72" height="195.48" rx="5.77" transform="translate(212.3 388.68) rotate(180)"/><rect class="cls-1" x="72.14" y="105.07" width="26.72" height="65.6" rx="5.77" transform="translate(247.66 132.76) rotate(120)"/><rect class="cls-1" x="113.43" y="105.07" width="26.72" height="65.6" rx="5.77" transform="translate(182.8 -40.87) rotate(60)"/><rect class="cls-1" x="151.36" y="140.91" width="26.72" height="65.6" rx="5.77" transform="translate(220.81 406.43) rotate(-150.07)"/><rect class="cls-1" x="151.41" y="182.2" width="26.72" height="65.6" rx="5.77" transform="translate(415.1 318.49) rotate(149.93)"/><rect class="cls-1" x="35.2" y="182.18" width="26.72" height="65.6" rx="5.77" transform="translate(114 4.52) rotate(30)"/><rect class="cls-1" x="35.2" y="140.89" width="26.72" height="65.6" rx="5.77" transform="translate(-80.34 47.55) rotate(-30)"/><rect class="cls-1" x="113.93" y="219.41" width="26.72" height="65.6" rx="5.77" transform="translate(-154.78 236.34) rotate(-60)"/><rect class="cls-1" x="72.64" y="219.41" width="26.72" height="65.6" rx="5.77" transform="translate(-89.42 452.8) rotate(-120)"/><path class="cls-1" d="M241,271.48V119.58h61a46.65,46.65,0,0,1,29.51,10.21q16,12.35,16,35.18a45.92,45.92,0,0,1-5.39,22.55q20.56,12.35,20.57,38.58,0,22.54-16,35.17a45.5,45.5,0,0,1-29.5,10.21Zm30.36-91.34H302q15.18-.42,15.18-15.17,0-15-15.18-15H271.36Zm0,61.13h45.38q15.61-.42,15.61-15.17,0-15.6-15.18-15.6H271.36Z"/><path class="cls-1" d="M500,180.14q0,34.05-25,50.07l15,41.27H457.73l-11.49-31.06q-4.39.44-6.95.43H408.65v30.63H378.3V119.15h61q15.18,0,30.35,7.8Q500,142.13,500,180.14ZM439.29,210.5a35.38,35.38,0,0,0,15.18-3.69q15.16-7.8,15.17-26.67,0-19.14-15.17-26.52a32.47,32.47,0,0,0-15.18-4.11H408.65v61Z"/><path class="cls-1" d="M659,271.48h-35.6l-8.51-21.27H551.34l-8.65,21.27h-35.6l76.16-151.9Zm-57.3-52.33-18.44-36.88-18.44,36.88Z"/><path class="cls-1" d="M674.59,271.48V119.58l88.08,81.84V119.58h30.78v151.9L705,189.22v82.26Z"/><path class="cls-1" d="M957,271.48h-35.6l-8.51-21.27H849.34l-8.66,21.27h-35.6l76.17-151.9ZM865.5,83.55A12.44,12.44,0,0,1,874,86.82a12.17,12.17,0,0,1,3.41,8.51A12.34,12.34,0,0,1,874,104a12.48,12.48,0,0,1-8.51,3.26,11.21,11.21,0,0,1-11.91-11.91,12.48,12.48,0,0,1,3.26-8.51A12.62,12.62,0,0,1,865.5,83.55Zm34.19,135.6-18.44-36.88-18.44,36.88Zm-3.12-135.6a11.12,11.12,0,0,1,8.22,3.27,11.68,11.68,0,0,1,3.69,8.51,11.84,11.84,0,0,1-3.69,8.65,11.15,11.15,0,0,1-8.22,3.26,11.42,11.42,0,0,1-11.92-11.91,12.17,12.17,0,0,1,3.41-8.51A12.42,12.42,0,0,1,896.57,83.55Z"/><path class="cls-1" d="M985.5,262.55q-10.37-5-16-10.21l10.64-11.07,10.21-11.48a30,30,0,0,0,8.23,5.24q13.05,6.25,29.5,6.24,26.39,0,28.51-14.46v-.71a12.27,12.27,0,0,0-3-7.8q-7-7.8-25.53-7.8-32.62,0-48.08-18a38,38,0,0,1-10.64-26.66,38.88,38.88,0,0,1,.42-5.68q2.41-18,18-29.5,15.88-11.05,40.28-11.06,23.4,0,42.55,8.93,10.35,5,16,10.36L1065.78,161q0-.85-8.23-5a69,69,0,0,0-29.5-6.1q-26.38,0-28.09,13.9v2a9.47,9.47,0,0,0,2.56,6.52q6.94,7.8,25.53,7.8,32.48,0,48.51,18,10.2,11.91,10.21,26.66a40.27,40.27,0,0,1-.43,6.1q-2,18-18,29.08-15.88,11.49-40.28,11.48Q1004.65,271.48,985.5,262.55Z"/><path class="cls-1" d="M1132.72,119.58V241.27h70.07v30.21H1102.37V119.58Z"/><path class="cls-1" d="M1366.33,271.48h-35.61l-8.51-21.27h-63.54L1250,271.48h-35.6l76.16-151.9ZM1274.84,83.55a12.46,12.46,0,0,1,8.51,3.27,12.16,12.16,0,0,1,3.4,8.51,12.34,12.34,0,0,1-3.4,8.65,12.49,12.49,0,0,1-8.51,3.26,11.21,11.21,0,0,1-11.91-11.91,12.43,12.43,0,0,1,3.26-8.51A12.62,12.62,0,0,1,1274.84,83.55ZM1309,219.15l-18.44-36.88-18.43,36.88Zm-3.12-135.6a11.15,11.15,0,0,1,8.23,3.27,11.68,11.68,0,0,1,3.69,8.51,11.84,11.84,0,0,1-3.69,8.65,11.18,11.18,0,0,1-8.23,3.26,12.49,12.49,0,0,1-8.51-3.26,12.34,12.34,0,0,1-3.4-8.65,12.16,12.16,0,0,1,3.4-8.51A12.46,12.46,0,0,1,1305.9,83.55Z"/><path class="cls-1" d="M1508,195.32q0,47.52-37.59,66.8-19.29,9.36-38.15,9.36-47.52,0-66.81-38a85,85,0,0,1-9.36-38.15q0-18.87,9.36-38,19.29-37.73,66.81-37.73,51.2,0,68.79,43.4L1475,179q-10.35-29.07-42.69-29.08-28.65,0-40.14,22.84a48.92,48.92,0,0,0-5.68,22.55,51.55,51.55,0,0,0,5.68,23q11.49,23,40.14,23,21.71,0,35.31-15.17h-35.31V195.32Z"/><path class="cls-1" d="M1645.31,180.14q0,34.05-25,50.07l15,41.27h-32.34l-11.49-31.06q-4.39.44-7,.43H1554v30.63h-30.35V119.15h61q15.18,0,30.35,7.8Q1645.31,142.13,1645.31,180.14Zm-60.7,30.36a35.45,35.45,0,0,0,15.18-3.69Q1615,199,1615,180.14q0-19.14-15.17-26.52a32.53,32.53,0,0,0-15.18-4.11H1554v61Z"/><path class="cls-1" d="M1767.43,119.58v30.35h-76.16v30.21h63.82V210.5h-63.82v30.77h76.16v30.21H1660.92V119.58Z"/><path class="cls-1" d="M1904.45,119.58v30.21h-45.39V271.48h-30.64V149.79H1783V119.58Z"/></svg>