<svg id="Lager_1" data-name="Lager 1" xmlns="http://www.w3.org/2000/svg" viewBox="0 0 595.28 841.89"><defs><style>.cls-1{fill:#62666b;}</style></defs><title>branaslogga</title><rect class="cls-1" x="258.1" y="129.93" width="75.65" height="553.39" rx="5.77" transform="translate(-110.7 702.55) rotate(-90)"/><rect class="cls-1" x="256.7" y="129.93" width="75.65" height="553.39" rx="5.77" transform="translate(589.04 813.25) rotate(180)"/><rect class="cls-1" x="198.25" y="153.92" width="75.65" height="185.7" rx="5.77" transform="translate(567.83 165.71) rotate(120)"/><rect class="cls-1" x="315.14" y="153.92" width="75.65" height="185.7" rx="5.77" transform="translate(390.2 -182.29) rotate(60)"/><rect class="cls-1" x="422.52" y="255.36" width="75.65" height="185.7" rx="5.77" transform="translate(685.56 879.67) rotate(-150.07)"/><rect class="cls-1" x="422.66" y="372.25" width="75.65" height="185.7" rx="5.77" transform="translate(1092.05 636.88) rotate(149.93)"/><rect class="cls-1" x="93.68" y="372.22" width="75.65" height="185.7" rx="5.77" transform="translate(250.15 -3.44) rotate(30)"/><rect class="cls-1" x="93.68" y="255.33" width="75.65" height="185.7" rx="5.77" transform="translate(-156.47 112.4) rotate(-30)"/><rect class="cls-1" x="316.54" y="477.61" width="75.65" height="185.7" rx="5.77" transform="translate(-316.85 592.12) rotate(-60)"/><rect class="cls-1" x="199.65" y="477.61" width="75.65" height="185.7" rx="5.77" transform="translate(-137.82 1061.36) rotate(-120)"/></svg>